<?xml version="1.0" encoding="iso-8859-1"?>
<!-- Generator: Adobe Illustrator 19.0.0, SVG Export Plug-In . SVG Version: 6.00 Build 0)  -->
<svg version="1.1" id="Layer_1" xmlns="http://www.w3.org/2000/svg" xmlns:xlink="http://www.w3.org/1999/xlink" x="0px" y="0px"
	 viewBox="0 0 512 512" style="enable-background:new 0 0 512 512;" xml:space="preserve">
<g>
	<g>
		<g>
			<path d="M384,0H128c-23.521,0-42.667,19.135-42.667,42.667v426.667C85.333,492.865,104.479,512,128,512h256
				c23.521,0,42.667-19.135,42.667-42.667V42.667C426.667,19.135,407.521,0,384,0z M405.333,469.333
				c0,11.76-9.563,21.333-21.333,21.333H128c-11.771,0-21.333-9.573-21.333-21.333v-42.667h298.667V469.333z M405.333,405.333
				H106.667V42.667c0-11.76,9.563-21.333,21.333-21.333h256c11.771,0,21.333,9.573,21.333,21.333V405.333z"/>
			<path d="M245.333,64h21.333c5.896,0,10.667-4.771,10.667-10.667c0-5.896-4.771-10.667-10.667-10.667h-21.333
				c-5.896,0-10.667,4.771-10.667,10.667C234.667,59.229,239.438,64,245.333,64z"/>
			<path d="M224,469.333h64c5.896,0,10.667-4.771,10.667-10.667S293.896,448,288,448h-64c-5.896,0-10.667,4.771-10.667,10.667
				S218.104,469.333,224,469.333z"/>
			<circle cx="373.333" cy="53.333" r="10.667"/>
			<path d="M256,234.667c29.417,0,53.333-23.927,53.333-53.333S285.417,128,256,128s-53.333,23.927-53.333,53.333
				S226.583,234.667,256,234.667z M256,149.333c17.646,0,32,14.354,32,32c0,17.646-14.354,32-32,32s-32-14.354-32-32
				C224,163.688,238.354,149.333,256,149.333z"/>
			<path d="M328.958,267.344c-17.042-10.042-43.542-22.01-72.958-22.01s-55.917,11.969-72.958,22.01
				C168.833,275.729,160,292.01,160,309.833v6.833c0,13.604,10.25,24.667,22.854,24.667h146.292
				c12.604,0,22.854-11.063,22.854-24.667v-6.833C352,292.01,343.167,275.729,328.958,267.344z M330.667,316.667
				c0,2.219-1.271,3.333-1.521,3.333H182.854c-0.25,0-1.521-1.115-1.521-3.333v-6.833c0-10.156,4.917-19.615,12.542-24.115
				c14.75-8.688,37.5-19.052,62.125-19.052s47.375,10.365,62.125,19.052c7.625,4.5,12.542,13.958,12.542,24.115V316.667z"/>
		</g>
	</g>
</g>
<g>
</g>
<g>
</g>
<g>
</g>
<g>
</g>
<g>
</g>
<g>
</g>
<g>
</g>
<g>
</g>
<g>
</g>
<g>
</g>
<g>
</g>
<g>
</g>
<g>
</g>
<g>
</g>
<g>
</g>
</svg>
