<?xml version="1.0" encoding="iso-8859-1"?>
<!-- Generator: Adobe Illustrator 19.0.0, SVG Export Plug-In . SVG Version: 6.00 Build 0)  -->
<svg version="1.1" id="Capa_1" xmlns="http://www.w3.org/2000/svg" xmlns:xlink="http://www.w3.org/1999/xlink" x="0px" y="0px"
	 viewBox="0 0 512 512" style="enable-background:new 0 0 512 512;" xml:space="preserve">
<g>
	<g>
		<path d="M408.271,234.667c-11.813,0-22.938,5.208-30.5,14.292l-79.104,94.917V42.667C298.667,19.135,279.521,0,256,0
			s-42.667,19.135-42.667,42.667v301.208l-79.104-94.917c-7.563-9.083-18.688-14.292-30.5-14.292
			C81.813,234.667,64,252.49,64,274.385v2.938c0,9.406,3.354,18.542,9.458,25.719L247.875,508.24c2.021,2.385,5,3.76,8.125,3.76
			s6.104-1.375,8.125-3.76l174.417-205.198c6.104-7.177,9.458-16.313,9.458-25.719v-2.938
			C448,252.49,430.188,234.667,408.271,234.667z"/>
	</g>
</g>
<g>
</g>
<g>
</g>
<g>
</g>
<g>
</g>
<g>
</g>
<g>
</g>
<g>
</g>
<g>
</g>
<g>
</g>
<g>
</g>
<g>
</g>
<g>
</g>
<g>
</g>
<g>
</g>
<g>
</g>
</svg>
